<?xml version="1.0" encoding="UTF-8" standalone="no"?>
<svg
  xmlns="http://www.w3.org/2000/svg"
  viewBox="0 -256 1792 1792"
  version="1.1"
>
  <g
    transform="matrix(1,0,0,-1,7.5932203,1217.0847)"
    id="g3003">
    <path
      d="m 1671,970 q 0,-40 -28,-68 L 919,178 783,42 Q 755,14 715,14 675,14 647,42 L 511,178 149,540 q -28,28 -28,68 0,40 28,68 l 136,136 q 28,28 68,28 40,0 68,-28 l 294,-295 656,657 q 28,28 68,28 40,0 68,-28 l 136,-136 q 28,-28 28,-68 z"
      style="fill:white"/>
  </g>
</svg>
